<svg xmlns="http://www.w3.org/2000/svg" width="180" height="31" viewBox="0 0 180 31" fill="none">
<path d="M6.04 25.6L6.2 18L16.24 8.48H23.68L14.04 18.28L10.8 20.92L6.04 25.6ZM0.88 30V0.319998H7.12V30H0.88ZM16.92 30L9.64 20.96L13.56 16.12L24.48 30H16.92ZM36.6278 30.32C34.3345 30.32 32.2945 29.84 30.5078 28.88C28.7478 27.92 27.3478 26.6133 26.3078 24.96C25.2945 23.28 24.7878 21.3733 24.7878 19.24C24.7878 17.08 25.2945 15.1733 26.3078 13.52C27.3478 11.84 28.7478 10.5333 30.5078 9.6C32.2945 8.64 34.3345 8.16 36.6278 8.16C38.8945 8.16 40.9211 8.64 42.7078 9.6C44.4945 10.5333 45.8945 11.8267 46.9078 13.48C47.9211 15.1333 48.4278 17.0533 48.4278 19.24C48.4278 21.3733 47.9211 23.28 46.9078 24.96C45.8945 26.6133 44.4945 27.92 42.7078 28.88C40.9211 29.84 38.8945 30.32 36.6278 30.32ZM36.6278 25.2C37.6678 25.2 38.6011 24.96 39.4278 24.48C40.2545 24 40.9078 23.32 41.3878 22.44C41.8678 21.5333 42.1078 20.4667 42.1078 19.24C42.1078 17.9867 41.8678 16.92 41.3878 16.04C40.9078 15.16 40.2545 14.48 39.4278 14C38.6011 13.52 37.6678 13.28 36.6278 13.28C35.5878 13.28 34.6545 13.52 33.8278 14C33.0011 14.48 32.3345 15.16 31.8278 16.04C31.3478 16.92 31.1078 17.9867 31.1078 19.24C31.1078 20.4667 31.3478 21.5333 31.8278 22.44C32.3345 23.32 33.0011 24 33.8278 24.48C34.6545 24.96 35.5878 25.2 36.6278 25.2ZM52.5988 30V8.48H58.5588V14.56L57.7188 12.8C58.3588 11.28 59.3854 10.1333 60.7988 9.36C62.2121 8.56 63.9321 8.16 65.9588 8.16V13.92C65.6921 13.8933 65.4521 13.88 65.2388 13.88C65.0254 13.8533 64.7988 13.84 64.5588 13.84C62.8521 13.84 61.4654 14.3333 60.3988 15.32C59.3588 16.28 58.8388 17.7867 58.8388 19.84V30H52.5988ZM81.4628 30V25.8L81.0628 24.88V17.36C81.0628 16.0267 80.6495 14.9867 79.8228 14.24C79.0228 13.4933 77.7828 13.12 76.1028 13.12C74.9561 13.12 73.8228 13.3067 72.7028 13.68C71.6095 14.0267 70.6761 14.5067 69.9028 15.12L67.6628 10.76C68.8361 9.93333 70.2495 9.29333 71.9028 8.84C73.5561 8.38667 75.2361 8.16 76.9428 8.16C80.2228 8.16 82.7695 8.93333 84.5828 10.48C86.3961 12.0267 87.3028 14.44 87.3028 17.72V30H81.4628ZM74.9028 30.32C73.2228 30.32 71.7828 30.04 70.5828 29.48C69.3828 28.8933 68.4628 28.1067 67.8228 27.12C67.1828 26.1333 66.8628 25.0267 66.8628 23.8C66.8628 22.52 67.1695 21.4 67.7828 20.44C68.4228 19.48 69.4228 18.7333 70.7828 18.2C72.1428 17.64 73.9161 17.36 76.1028 17.36H81.8228V21H76.7828C75.3161 21 74.3028 21.24 73.7428 21.72C73.2095 22.2 72.9428 22.8 72.9428 23.52C72.9428 24.32 73.2495 24.96 73.8628 25.44C74.5028 25.8933 75.3695 26.12 76.4628 26.12C77.5028 26.12 78.4361 25.88 79.2628 25.4C80.0895 24.8933 80.6895 24.16 81.0628 23.2L82.0228 26.08C81.5695 27.4667 80.7428 28.52 79.5428 29.24C78.3428 29.96 76.7961 30.32 74.9028 30.32ZM98.1103 25.6L98.2703 18L108.31 8.48H115.75L106.11 18.28L102.87 20.92L98.1103 25.6ZM92.9503 30V0.319998H99.1903V30H92.9503ZM108.99 30L101.71 20.96L105.63 16.12L116.55 30H108.99ZM128.698 30.32C126.405 30.32 124.365 29.84 122.578 28.88C120.818 27.92 119.418 26.6133 118.378 24.96C117.365 23.28 116.858 21.3733 116.858 19.24C116.858 17.08 117.365 15.1733 118.378 13.52C119.418 11.84 120.818 10.5333 122.578 9.6C124.365 8.64 126.405 8.16 128.698 8.16C130.965 8.16 132.991 8.64 134.778 9.6C136.565 10.5333 137.965 11.8267 138.978 13.48C139.991 15.1333 140.498 17.0533 140.498 19.24C140.498 21.3733 139.991 23.28 138.978 24.96C137.965 26.6133 136.565 27.92 134.778 28.88C132.991 29.84 130.965 30.32 128.698 30.32ZM128.698 25.2C129.738 25.2 130.671 24.96 131.498 24.48C132.325 24 132.978 23.32 133.458 22.44C133.938 21.5333 134.178 20.4667 134.178 19.24C134.178 17.9867 133.938 16.92 133.458 16.04C132.978 15.16 132.325 14.48 131.498 14C130.671 13.52 129.738 13.28 128.698 13.28C127.658 13.28 126.725 13.52 125.898 14C125.071 14.48 124.405 15.16 123.898 16.04C123.418 16.92 123.178 17.9867 123.178 19.24C123.178 20.4667 123.418 21.5333 123.898 22.44C124.405 23.32 125.071 24 125.898 24.48C126.725 24.96 127.658 25.2 128.698 25.2ZM144.669 30V8.48H150.629V14.56L149.789 12.8C150.429 11.28 151.456 10.1333 152.869 9.36C154.282 8.56 156.002 8.16 158.029 8.16V13.92C157.762 13.8933 157.522 13.88 157.309 13.88C157.096 13.8533 156.869 13.84 156.629 13.84C154.922 13.84 153.536 14.3333 152.469 15.32C151.429 16.28 150.909 17.7867 150.909 19.84V30H144.669ZM173.533 30V25.8L173.133 24.88V17.36C173.133 16.0267 172.72 14.9867 171.893 14.24C171.093 13.4933 169.853 13.12 168.173 13.12C167.026 13.12 165.893 13.3067 164.773 13.68C163.68 14.0267 162.746 14.5067 161.973 15.12L159.733 10.76C160.906 9.93333 162.32 9.29333 163.973 8.84C165.626 8.38667 167.306 8.16 169.013 8.16C172.293 8.16 174.84 8.93333 176.653 10.48C178.466 12.0267 179.373 14.44 179.373 17.72V30H173.533ZM166.973 30.32C165.293 30.32 163.853 30.04 162.653 29.48C161.453 28.8933 160.533 28.1067 159.893 27.12C159.253 26.1333 158.933 25.0267 158.933 23.8C158.933 22.52 159.24 21.4 159.853 20.44C160.493 19.48 161.493 18.7333 162.853 18.2C164.213 17.64 165.986 17.36 168.173 17.36H173.893V21H168.853C167.386 21 166.373 21.24 165.813 21.72C165.28 22.2 165.013 22.8 165.013 23.52C165.013 24.32 165.32 24.96 165.933 25.44C166.573 25.8933 167.44 26.12 168.533 26.12C169.573 26.12 170.506 25.88 171.333 25.4C172.16 24.8933 172.76 24.16 173.133 23.2L174.093 26.08C173.64 27.4667 172.813 28.52 171.613 29.24C170.413 29.96 168.866 30.32 166.973 30.32Z" fill="white"></path>
</svg>