<svg width="193" height="49" viewBox="0 0 193 49" fill="none" xmlns="http://www.w3.org/2000/svg">
<path d="M31.304 14.5459H34.2529L41.268 23.1512L48.283 14.5459H51.232V36.3571H48.0085V20.0532L42.6148 26.6177H39.9403L34.5306 20.0532V36.3571H31.3071V14.5459H31.304Z" fill="#1D1D1B"/>
<path d="M55.1736 24.9158C55.1736 24.0989 55.381 23.3524 55.7927 22.6764C56.2045 22.0004 56.7566 21.4654 57.4428 21.0649C58.129 20.6677 58.8917 20.4658 59.7279 20.4658H63.2578V23.6856H59.7279C59.3609 23.6856 59.0481 23.8105 58.7896 24.0604C58.5311 24.3103 58.4002 24.6147 58.4002 24.9735V36.3533H55.1768V24.9094L55.1736 24.9158Z" fill="#1D1D1B"/>
<path d="M76.2092 14.5459H87.6987C88.6881 14.5459 89.5849 14.7894 90.3956 15.2731C91.2063 15.7601 91.8509 16.4073 92.3361 17.2146C92.8212 18.022 93.0605 18.9222 93.0605 19.9154V22.094C93.0605 23.0647 92.818 23.9521 92.3361 24.7563C91.8509 25.5604 91.2063 26.198 90.3956 26.6721C89.5849 27.1463 88.6881 27.3866 87.6987 27.3866H81.2646V24.1668H87.6987C88.2987 24.1668 88.8094 23.9617 89.2275 23.5517C89.6456 23.1416 89.853 22.6418 89.853 22.0491V19.9186C89.853 19.3259 89.6456 18.8197 89.2275 18.4C88.8094 17.9803 88.3019 17.7721 87.6987 17.7721H79.4326V36.3635H76.2092V14.5523V14.5459Z" fill="#1D1D1B"/>
<path d="M94.5315 24.9158C94.5315 24.0989 94.7389 23.3524 95.1507 22.6764C95.5624 22.0004 96.1145 21.4654 96.8007 21.0649C97.4869 20.6677 98.2497 20.4658 99.0858 20.4658H102.616V23.6856H99.0858C98.7188 23.6856 98.406 23.8105 98.1475 24.0604C97.889 24.3103 97.7582 24.6147 97.7582 24.9735V36.3533H94.5347V24.9094L94.5315 24.9158Z" fill="#1D1D1B"/>
<path d="M103.637 26.2037C103.637 25.1497 103.896 24.1886 104.41 23.3204C104.923 22.4521 105.613 21.7569 106.481 21.2411C107.346 20.7253 108.303 20.4658 109.353 20.4658H112.807C113.857 20.4658 114.814 20.7253 115.679 21.2411C116.544 21.7569 117.236 22.4489 117.75 23.3204C118.264 24.1886 118.523 25.1497 118.523 26.2037V30.6217C118.523 31.6758 118.264 32.6369 117.75 33.5051C117.236 34.3733 116.547 35.0686 115.679 35.5844C114.814 36.1002 113.857 36.3597 112.807 36.3597H109.353C108.303 36.3597 107.346 36.1002 106.481 35.5844C105.616 35.0686 104.923 34.3765 104.41 33.5051C103.896 32.6369 103.637 31.6758 103.637 30.6217V26.2037ZM106.861 30.5897C106.861 31.2849 107.106 31.8808 107.595 32.3774C108.083 32.874 108.67 33.1207 109.353 33.1207H112.807C113.499 33.1207 114.086 32.874 114.571 32.3774C115.057 31.8808 115.296 31.2849 115.296 30.5897V26.2326C115.296 25.5374 115.053 24.9415 114.571 24.4449C114.086 23.9483 113.499 23.7016 112.807 23.7016H109.353C108.67 23.7016 108.086 23.9483 107.595 24.4449C107.106 24.9415 106.861 25.5374 106.861 26.2326V30.5897Z" fill="#1D1D1B"/>
<path d="M121.781 19.1019C121.781 18.2625 121.989 17.5 122.401 16.808C122.812 16.1192 123.365 15.5682 124.051 15.1581C124.737 14.748 125.5 14.543 126.336 14.543H129.866V17.7628H126.336C125.969 17.7628 125.656 17.8941 125.398 18.1536C125.139 18.4131 125.008 18.7303 125.008 19.0955V20.4603H129.93V23.6801H125.008V36.351H121.785V19.0955L121.781 19.1019Z" fill="#1D1D1B"/>
<path d="M132.473 16.1412C132.473 15.5901 132.668 15.1192 133.054 14.7315C133.44 14.3439 133.909 14.1484 134.461 14.1484C135.013 14.1484 135.479 14.3439 135.865 14.7315C136.252 15.1192 136.446 15.5901 136.446 16.1412C136.446 16.6922 136.252 17.1632 135.865 17.554C135.479 17.9417 135.01 18.1371 134.461 18.1371C133.912 18.1371 133.443 17.9417 133.054 17.554C132.668 17.1664 132.473 16.6954 132.473 16.1412ZM132.84 20.4662H136.079V36.3569H132.84V20.4662Z" fill="#1D1D1B"/>
<path d="M139.714 14.5459H142.938V36.3571H139.714V14.5459Z" fill="#1D1D1B"/>
<path d="M146.576 23.7504C146.576 22.8405 146.908 22.0652 147.569 21.4277C148.229 20.7901 149.024 20.4697 149.953 20.4697H156.553C157.398 20.4697 158.164 20.678 158.854 21.0913C159.54 21.5045 160.092 22.062 160.504 22.7636C160.916 23.4652 161.123 24.2373 161.123 25.0863V25.5317C161.123 26.3711 160.916 27.1336 160.504 27.8256C160.092 28.5144 159.54 29.0686 158.854 29.4819C158.168 29.8952 157.398 30.1034 156.553 30.1034H151.631V26.8837H156.581C156.948 26.8837 157.261 26.7523 157.52 26.4832C157.778 26.2173 157.909 25.8969 157.909 25.5156V25.0863C157.909 24.6987 157.778 24.3719 157.52 24.106C157.261 23.8401 156.945 23.7087 156.581 23.7087H149.796V31.8687C149.796 32.2179 149.914 32.5127 150.147 32.7593C150.38 33.006 150.668 33.1278 151.003 33.1278H160.003V36.3636H151.003C150.189 36.3636 149.445 36.1617 148.772 35.7581C148.098 35.3544 147.565 34.813 147.166 34.1338C146.771 33.4546 146.57 32.7049 146.57 31.8879V23.76L146.576 23.7504Z" fill="#1D1D1B"/>
<path d="M62.5428 35.0817C62.5428 34.7293 62.6673 34.4282 62.9131 34.1783C63.1588 33.9284 63.462 33.8066 63.8131 33.8066C64.1642 33.8066 64.4642 33.9316 64.7131 34.1783C64.962 34.4282 65.0833 34.7293 65.0833 35.0817C65.0833 35.4342 64.9588 35.7353 64.7131 35.9852C64.4642 36.2351 64.1642 36.3568 63.8131 36.3568C63.462 36.3568 63.162 36.2319 62.9131 35.9852C62.6641 35.7353 62.5428 35.4342 62.5428 35.0817Z" fill="#1D1D1B"/>
<path d="M184.485 0.238281H8.51625C4.01617 0.238281 0.355469 3.91299 0.355469 8.43029V40.3045C0.355469 44.8218 4.01617 48.4965 8.51625 48.4965H45.1807V46.2218H8.51625C5.26407 46.2218 2.62147 43.5659 2.62147 40.3045V8.43029C2.62147 5.16566 5.26726 2.51295 8.51625 2.51295H184.485C187.738 2.51295 190.38 5.16887 190.38 8.43029V40.3045C190.38 43.5691 187.734 46.2218 184.485 46.2218H147.888V48.4965H184.485C188.985 48.4965 192.646 44.8218 192.646 40.3045V8.43029C192.646 3.91299 188.985 0.238281 184.485 0.238281Z" fill="#1D1D1B"/>
<path d="M50.4913 49.4161V48.2019H54.1361V49.4161H53.6095V48.6953H51.0243V49.4161H50.4913ZM53.102 48.4326V46.081H51.7584L51.7297 46.6801C51.7233 46.8755 51.7105 47.0646 51.6914 47.2472C51.6722 47.4298 51.6467 47.5964 51.6084 47.747C51.5701 47.9007 51.519 48.0257 51.4488 48.1218C51.3786 48.2179 51.286 48.2788 51.1679 48.3044L50.6126 48.2051C50.7339 48.2083 50.8296 48.1698 50.903 48.0833C50.9764 48 51.0339 47.8847 51.0754 47.7341C51.1169 47.5868 51.1456 47.417 51.1647 47.2279C51.1839 47.0389 51.1999 46.8435 51.2126 46.6385L51.2605 45.5908H53.6605V48.4326H53.0988H53.102Z" fill="#1D1D1B"/>
<path d="M56.2431 48.7303C55.9112 48.7303 55.6208 48.663 55.3718 48.5253C55.1197 48.3875 54.925 48.2017 54.7878 47.9614C54.6505 47.7243 54.5803 47.4488 54.5803 47.1413C54.5803 46.8337 54.6473 46.5582 54.7814 46.3211C54.9154 46.084 55.1005 45.895 55.3367 45.7604C55.5729 45.6259 55.8378 45.5586 56.1346 45.5586C56.4314 45.5586 56.6995 45.6259 56.9293 45.7572C57.1591 45.8886 57.3378 46.0776 57.4687 46.3179C57.5995 46.5582 57.6634 46.8401 57.6634 47.1605C57.6634 47.1829 57.6634 47.2117 57.6634 47.2438C57.6634 47.2758 57.657 47.3046 57.6538 47.3303H55.0208V46.9266H57.3634L57.1367 47.0676C57.1399 46.8689 57.0985 46.6895 57.0155 46.5357C56.9293 46.3788 56.8112 46.257 56.6612 46.1705C56.5112 46.084 56.3357 46.0392 56.1378 46.0392C55.9399 46.0392 55.7708 46.084 55.6176 46.1705C55.4644 46.257 55.3463 46.382 55.2601 46.5389C55.174 46.6959 55.1325 46.8785 55.1325 47.0804V47.1733C55.1325 47.3815 55.1803 47.5642 55.2761 47.7275C55.3718 47.8909 55.5059 48.0159 55.675 48.1056C55.8474 48.1953 56.0421 48.2401 56.2655 48.2401C56.4474 48.2401 56.6133 48.2081 56.7633 48.1472C56.9133 48.0864 57.0442 47.9903 57.1559 47.8653L57.4655 48.2273C57.3251 48.3907 57.1527 48.5157 56.9421 48.6022C56.7346 48.6887 56.5016 48.7303 56.2431 48.7303Z" fill="#1D1D1B"/>
<path d="M58.5314 48.6955V45.5879H59.0931V48.6955H58.5314ZM58.9239 47.3852V46.9046H59.9452V47.3852H58.9239ZM60.0857 47.209L59.5654 47.1385L60.7495 45.5911H61.3495L60.0825 47.209H60.0857ZM60.775 48.6955L59.5782 47.1834L60.041 46.9014L61.4357 48.6955H60.775Z" fill="#1D1D1B"/>
<path d="M63.2453 48.7303C62.9326 48.7303 62.6581 48.663 62.4155 48.5253C62.173 48.3875 61.9847 48.1985 61.8442 47.9582C61.7038 47.7179 61.6336 47.4456 61.6336 47.1413C61.6336 46.8369 61.7038 46.5582 61.8442 46.3211C61.9847 46.084 62.1762 45.895 62.4155 45.7604C62.6581 45.6259 62.9326 45.5586 63.2453 45.5586C63.5581 45.5586 63.8294 45.6259 64.0719 45.7604C64.3145 45.895 64.506 46.0808 64.6432 46.3179C64.7805 46.555 64.8507 46.8273 64.8507 47.1413C64.8507 47.4552 64.7805 47.7243 64.6432 47.9614C64.506 48.1985 64.3145 48.3875 64.0719 48.5253C63.8294 48.663 63.5517 48.7303 63.2453 48.7303ZM63.2453 48.2401C63.4432 48.2401 63.6219 48.1953 63.7783 48.1056C63.9347 48.0159 64.0592 47.8877 64.1485 47.7211C64.2379 47.5545 64.2826 47.3623 64.2826 47.1445C64.2826 46.9266 64.2379 46.728 64.1485 46.5678C64.0592 46.4044 63.9347 46.2794 63.7783 46.1897C63.6219 46.1 63.4432 46.0552 63.2453 46.0552C63.0475 46.0552 62.8687 46.1 62.7123 46.1897C62.556 46.2794 62.4315 46.4044 62.3389 46.5678C62.2464 46.7312 62.1985 46.9234 62.1985 47.1445C62.1985 47.3655 62.2464 47.5545 62.3389 47.7211C62.4315 47.8877 62.556 48.0159 62.7123 48.1056C62.8687 48.1953 63.0443 48.2401 63.2453 48.2401Z" fill="#1D1D1B"/>
<path d="M65.6612 49.8324V45.5874H66.1973V46.4268L66.1622 47.1477L66.2197 47.8685V49.8324H65.658H65.6612ZM67.3016 48.7303C67.0463 48.7303 66.8101 48.6694 66.5995 48.5509C66.3888 48.4324 66.2165 48.2562 66.092 48.0191C65.9675 47.782 65.9037 47.4905 65.9037 47.1413C65.9037 46.792 65.9643 46.4973 66.0888 46.2634C66.2133 46.0296 66.3793 45.8533 66.5899 45.7348C66.8005 45.6163 67.0399 45.5586 67.3048 45.5586C67.608 45.5586 67.8761 45.6259 68.1091 45.7572C68.3421 45.8886 68.5272 46.0744 68.6644 46.3115C68.8016 46.5486 68.8687 46.8241 68.8687 47.1413C68.8687 47.4584 68.8016 47.7339 68.6644 47.9742C68.5272 48.2113 68.3421 48.3971 68.1091 48.5317C67.8761 48.663 67.608 48.7303 67.3048 48.7303H67.3016ZM67.2537 48.2401C67.4516 48.2401 67.6303 48.1953 67.7867 48.1056C67.9431 48.0159 68.0676 47.8877 68.1601 47.7211C68.2527 47.5545 68.2974 47.3623 68.2974 47.1445C68.2974 46.9266 68.2527 46.728 68.1601 46.5678C68.0676 46.4044 67.9431 46.2794 67.7867 46.1897C67.6303 46.1 67.4516 46.0552 67.2537 46.0552C67.0559 46.0552 66.8835 46.1 66.7239 46.1897C66.5675 46.2794 66.4431 46.4044 66.3505 46.5678C66.258 46.7312 66.2133 46.9234 66.2133 47.1445C66.2133 47.3655 66.258 47.5545 66.3505 47.7211C66.4431 47.8877 66.5675 48.0159 66.7239 48.1056C66.8803 48.1953 67.059 48.2401 67.2537 48.2401Z" fill="#1D1D1B"/>
<path d="M70.7516 49.4151V48.2009H74.3963V49.4151H73.8697V48.6943H71.2846V49.4151H70.7516ZM73.3623 48.4316V46.08H72.0186L71.9899 46.6791C71.9835 46.8745 71.9708 47.0636 71.9516 47.2462C71.9325 47.4288 71.9069 47.5954 71.8686 47.746C71.8303 47.8998 71.7793 48.0247 71.7091 48.1208C71.6388 48.2169 71.5463 48.2778 71.4282 48.3034L70.8729 48.2041C70.9941 48.2073 71.0899 48.1689 71.1633 48.0824C71.2367 47.9991 71.2941 47.8837 71.3356 47.7332C71.3771 47.5858 71.4058 47.416 71.425 47.227C71.4441 47.0379 71.4601 46.8425 71.4729 46.6375L71.5207 45.5898H73.9208V48.4316H73.3591H73.3623Z" fill="#1D1D1B"/>
<path d="M74.6103 48.6918L74.6454 48.2176C74.6741 48.2208 74.6964 48.224 74.722 48.2304C74.7443 48.2336 74.7666 48.2369 74.7858 48.2369C74.9103 48.2369 75.0092 48.1952 75.0794 48.1087C75.1528 48.0222 75.2039 47.9101 75.239 47.7659C75.2741 47.6217 75.2996 47.4615 75.3156 47.2821C75.3315 47.1027 75.3443 46.9233 75.3507 46.7439L75.4017 45.5938H77.7795V48.7014H77.2177V45.9237L77.3518 46.0871H75.7624L75.8901 45.9173L75.8486 46.7791C75.8358 47.0515 75.8167 47.3078 75.7847 47.548C75.7528 47.7851 75.7049 47.9966 75.6411 48.176C75.5773 48.3554 75.4879 48.4964 75.3794 48.5989C75.2677 48.7014 75.1241 48.7527 74.9517 48.7527C74.9007 48.7527 74.8464 48.7462 74.7922 48.7366C74.7347 48.727 74.6741 48.7142 74.6071 48.6982L74.6103 48.6918Z" fill="#1D1D1B"/>
<path d="M78.6058 48.6943L79.4452 47.5057H80.0229L79.2058 48.6943H78.6058ZM80.8463 48.6943V47.605L80.9325 47.7107H79.9463C79.5346 47.7107 79.2122 47.6242 78.9793 47.448C78.7463 47.2718 78.6314 47.0155 78.6314 46.6791C78.6314 46.3203 78.7558 46.048 79.0016 45.8654C79.2473 45.6828 79.5793 45.5898 79.991 45.5898H81.3442V48.6975H80.8431L80.8463 48.6943ZM80.8463 47.4288V45.923L80.9325 46.08H80.0101C79.7548 46.08 79.5537 46.1281 79.4133 46.2242C79.2729 46.3203 79.2027 46.4773 79.2027 46.6951C79.2027 47.102 79.4644 47.3039 79.9846 47.3039H80.9293L80.8431 47.4256L80.8463 47.4288Z" fill="#1D1D1B"/>
<path d="M84.0123 48.6955V45.5879H85.4485C85.8092 45.5879 86.0964 45.6584 86.3039 45.7961C86.5113 45.9339 86.6166 46.1325 86.6166 46.3856C86.6166 46.6387 86.5177 46.8374 86.323 46.9751C86.1251 47.1129 85.8666 47.1834 85.5443 47.1834L85.6304 47.0296C86.0007 47.0296 86.2751 47.0969 86.4539 47.2346C86.6326 47.3724 86.7219 47.571 86.7219 47.8369C86.7219 48.1028 86.623 48.3175 86.4219 48.4681C86.2209 48.6187 85.9145 48.6923 85.5028 48.6923H84.0123V48.6955ZM84.5613 46.9271H85.4007C85.6145 46.9271 85.7773 46.8886 85.889 46.8053C86.0007 46.7252 86.0549 46.6131 86.0549 46.4689C86.0549 46.3248 86.0007 46.2094 85.889 46.1357C85.7773 46.0621 85.6145 46.0236 85.4007 46.0236H84.5613V46.9271ZM84.5613 48.263H85.4613C85.6943 48.263 85.8698 48.2278 85.9879 48.1541C86.106 48.0804 86.1634 47.9651 86.1634 47.8049C86.1634 47.6447 86.1092 47.5198 86.0039 47.4429C85.8953 47.366 85.7294 47.3275 85.4996 47.3275H84.5645V48.2598L84.5613 48.263Z" fill="#1D1D1B"/>
<path d="M88.4769 48.73C88.2471 48.73 88.0461 48.6916 87.8737 48.6115C87.7014 48.5346 87.5673 48.4257 87.4748 48.2847C87.3822 48.147 87.3344 47.99 87.3344 47.8138C87.3344 47.6376 87.3726 47.4934 87.4524 47.3556C87.5322 47.2179 87.6631 47.1089 87.845 47.0288C88.0269 46.9487 88.2695 46.9071 88.5791 46.9071H89.5589V47.3108H88.6014C88.3205 47.3108 88.1322 47.3588 88.0365 47.4517C87.9375 47.5446 87.8897 47.66 87.8897 47.7913C87.8897 47.9451 87.9503 48.0669 88.0716 48.1566C88.1929 48.2495 88.3588 48.2943 88.5727 48.2943C88.7865 48.2943 88.9652 48.2463 89.1248 48.1534C89.2812 48.0605 89.3961 47.9227 89.4663 47.7433L89.578 48.1309C89.5046 48.3135 89.3737 48.4609 89.1854 48.5667C88.9971 48.6756 88.7642 48.7268 88.4801 48.7268L88.4769 48.73ZM89.495 48.6948V48.038L89.4663 47.9163V46.7982C89.4663 46.5611 89.3961 46.3753 89.2589 46.2439C89.1216 46.1126 88.9142 46.0485 88.6365 46.0485C88.4546 46.0485 88.2759 46.0773 88.1003 46.1382C87.9248 46.1991 87.778 46.2792 87.6567 46.3817L87.4237 45.9588C87.5833 45.8306 87.7748 45.7313 87.9982 45.664C88.2216 45.5968 88.4578 45.5615 88.7003 45.5615C89.1248 45.5615 89.4503 45.664 89.6801 45.8723C89.9099 46.0805 90.0248 46.3945 90.0248 46.8206V48.6948H89.4918H89.495Z" fill="#1D1D1B"/>
<path d="M93.0923 48.2041L92.9647 48.3515V45.5898H93.5264V48.3515L93.3859 48.2041H95.02L94.886 48.3515V45.5898H95.4477V48.6975H91.0402V45.5898H91.6019V48.3515L91.4678 48.2041H93.0955H93.0923Z" fill="#1D1D1B"/>
<path d="M97.9087 48.7303C97.5767 48.7303 97.2863 48.663 97.0374 48.5253C96.7852 48.3875 96.5905 48.2017 96.4533 47.9614C96.3161 47.7243 96.2458 47.4488 96.2458 47.1413C96.2458 46.8337 96.3129 46.5582 96.4469 46.3211C96.581 46.084 96.7661 45.895 97.0023 45.7604C97.2384 45.6259 97.5033 45.5586 97.8001 45.5586C98.097 45.5586 98.365 45.6259 98.5948 45.7572C98.8246 45.8886 99.0034 46.0776 99.1342 46.3179C99.2651 46.5582 99.3289 46.8401 99.3289 47.1605C99.3289 47.1829 99.3289 47.2117 99.3289 47.2438C99.3289 47.2758 99.3225 47.3046 99.3193 47.3303H96.6863V46.9266H99.0289L98.8023 47.0676C98.8055 46.8689 98.764 46.6895 98.681 46.5357C98.5948 46.3788 98.4767 46.257 98.3267 46.1705C98.1767 46.084 98.0012 46.0392 97.8033 46.0392C97.6055 46.0392 97.4363 46.084 97.2831 46.1705C97.1299 46.257 97.0118 46.382 96.9257 46.5389C96.8395 46.6959 96.798 46.8785 96.798 47.0804V47.1733C96.798 47.3815 96.8459 47.5642 96.9416 47.7275C97.0374 47.8909 97.1714 48.0159 97.3406 48.1056C97.5129 48.1953 97.7076 48.2401 97.931 48.2401C98.1129 48.2401 98.2789 48.2081 98.4289 48.1472C98.5789 48.0864 98.7097 47.9903 98.8214 47.8653L99.131 48.2273C98.9906 48.3907 98.8182 48.5157 98.6076 48.6022C98.4002 48.6887 98.1672 48.7303 97.9087 48.7303Z" fill="#1D1D1B"/>
<path d="M100.197 48.6955V45.5879H102.473V46.0813H100.622L100.756 45.9531V48.6955H100.194H100.197Z" fill="#1D1D1B"/>
<path d="M104.237 48.7303C103.925 48.7303 103.65 48.663 103.407 48.5253C103.165 48.3875 102.977 48.1985 102.836 47.9582C102.696 47.7179 102.626 47.4456 102.626 47.1413C102.626 46.8369 102.696 46.5582 102.836 46.3211C102.977 46.084 103.168 45.895 103.407 45.7604C103.65 45.6259 103.925 45.5586 104.237 45.5586C104.55 45.5586 104.821 45.6259 105.064 45.7604C105.306 45.895 105.498 46.0808 105.635 46.3179C105.772 46.555 105.843 46.8273 105.843 47.1413C105.843 47.4552 105.772 47.7243 105.635 47.9614C105.498 48.1985 105.306 48.3875 105.064 48.5253C104.821 48.663 104.544 48.7303 104.237 48.7303ZM104.237 48.2401C104.435 48.2401 104.614 48.1953 104.77 48.1056C104.927 48.0159 105.051 47.8877 105.14 47.7211C105.23 47.5545 105.275 47.3623 105.275 47.1445C105.275 46.9266 105.23 46.728 105.14 46.5678C105.051 46.4044 104.927 46.2794 104.77 46.1897C104.614 46.1 104.435 46.0552 104.237 46.0552C104.039 46.0552 103.861 46.1 103.704 46.1897C103.548 46.2794 103.423 46.4044 103.331 46.5678C103.238 46.7312 103.19 46.9234 103.19 47.1445C103.19 47.3655 103.238 47.5545 103.331 47.7211C103.423 47.8877 103.548 48.0159 103.704 48.1056C103.861 48.1953 104.036 48.2401 104.237 48.2401Z" fill="#1D1D1B"/>
<path d="M108.224 48.6955V45.5879H108.786V47.8498L110.685 45.5879H111.192V48.6955H110.63V46.4337L108.738 48.6955H108.224Z" fill="#1D1D1B"/>
<path d="M112.277 48.6955V45.5879H112.838V46.9078H114.6V45.5879H115.162V48.6955H114.6V47.3948H112.838V48.6955H112.277Z" fill="#1D1D1B"/>
<path d="M116.866 48.6955V45.9339L117.006 46.0813H115.733V45.5879H118.557V46.0813H117.29L117.424 45.9339V48.6955H116.863H116.866Z" fill="#1D1D1B"/>
<path d="M120.374 48.7303C120.042 48.7303 119.752 48.663 119.503 48.5253C119.251 48.3875 119.056 48.2017 118.919 47.9614C118.781 47.7243 118.711 47.4488 118.711 47.1413C118.711 46.8337 118.778 46.5582 118.912 46.3211C119.046 46.084 119.231 45.895 119.468 45.7604C119.704 45.6259 119.969 45.5586 120.265 45.5586C120.562 45.5586 120.83 45.6259 121.06 45.7572C121.29 45.8886 121.469 46.0776 121.6 46.3179C121.73 46.5582 121.794 46.8401 121.794 47.1605C121.794 47.1829 121.794 47.2117 121.794 47.2438C121.794 47.2758 121.788 47.3046 121.785 47.3303H119.152V46.9266H121.494L121.268 47.0676C121.271 46.8689 121.229 46.6895 121.146 46.5357C121.06 46.3788 120.942 46.257 120.792 46.1705C120.642 46.084 120.467 46.0392 120.269 46.0392C120.071 46.0392 119.902 46.084 119.748 46.1705C119.595 46.257 119.477 46.382 119.391 46.5389C119.305 46.6959 119.263 46.8785 119.263 47.0804V47.1733C119.263 47.3815 119.311 47.5642 119.407 47.7275C119.503 47.8909 119.637 48.0159 119.806 48.1056C119.978 48.1953 120.173 48.2401 120.396 48.2401C120.578 48.2401 120.744 48.2081 120.894 48.1472C121.044 48.0864 121.175 47.9903 121.287 47.8653L121.596 48.2273C121.456 48.3907 121.284 48.5157 121.073 48.6022C120.865 48.6887 120.632 48.7303 120.374 48.7303Z" fill="#1D1D1B"/>
<path d="M122.665 49.8324V45.5874H123.202V46.4268L123.166 47.1477L123.224 47.8685V49.8324H122.662H122.665ZM124.306 48.7303C124.051 48.7303 123.814 48.6694 123.604 48.5509C123.393 48.4324 123.221 48.2562 123.096 48.0191C122.972 47.782 122.908 47.4905 122.908 47.1413C122.908 46.792 122.969 46.4973 123.093 46.2634C123.218 46.0296 123.384 45.8533 123.594 45.7348C123.805 45.6163 124.044 45.5586 124.309 45.5586C124.612 45.5586 124.88 45.6259 125.113 45.7572C125.346 45.8886 125.531 46.0744 125.669 46.3115C125.806 46.5486 125.873 46.8241 125.873 47.1413C125.873 47.4584 125.806 47.7339 125.669 47.9742C125.531 48.2113 125.346 48.3971 125.113 48.5317C124.88 48.663 124.612 48.7303 124.309 48.7303H124.306ZM124.258 48.2401C124.456 48.2401 124.635 48.1953 124.791 48.1056C124.947 48.0159 125.072 47.8877 125.164 47.7211C125.257 47.5545 125.302 47.3623 125.302 47.1445C125.302 46.9266 125.257 46.728 125.164 46.5678C125.072 46.4044 124.947 46.2794 124.791 46.1897C124.635 46.1 124.456 46.0552 124.258 46.0552C124.06 46.0552 123.888 46.1 123.728 46.1897C123.572 46.2794 123.447 46.4044 123.355 46.5678C123.262 46.7312 123.218 46.9234 123.218 47.1445C123.218 47.3655 123.262 47.5545 123.355 47.7211C123.447 47.8877 123.572 48.0159 123.728 48.1056C123.885 48.1953 124.063 48.2401 124.258 48.2401Z" fill="#1D1D1B"/>
<path d="M128.11 46.6444C128.503 46.6476 128.803 46.7373 129.01 46.9135C129.217 47.0897 129.32 47.3364 129.32 47.6568C129.32 47.9932 129.208 48.2527 128.981 48.4321C128.755 48.6147 128.436 48.7012 128.024 48.698L126.68 48.6916V45.584H127.242V46.6316L128.113 46.638L128.11 46.6444ZM127.976 48.2751C128.228 48.2783 128.42 48.2271 128.55 48.1214C128.681 48.0156 128.745 47.8586 128.745 47.6536C128.745 47.4486 128.681 47.3012 128.554 47.2083C128.426 47.1154 128.231 47.0641 127.976 47.0609L127.239 47.0481V48.2687L127.976 48.2751Z" fill="#1D1D1B"/>
<path d="M131.417 48.7303C131.085 48.7303 130.794 48.663 130.545 48.5253C130.293 48.3875 130.099 48.2017 129.961 47.9614C129.824 47.7243 129.754 47.4488 129.754 47.1413C129.754 46.8337 129.821 46.5582 129.955 46.3211C130.089 46.084 130.274 45.895 130.51 45.7604C130.747 45.6259 131.011 45.5586 131.308 45.5586C131.605 45.5586 131.873 45.6259 132.103 45.7572C132.333 45.8886 132.511 46.0776 132.642 46.3179C132.773 46.5582 132.837 46.8401 132.837 47.1605C132.837 47.1829 132.837 47.2117 132.837 47.2438C132.837 47.2758 132.831 47.3046 132.827 47.3303H130.194V46.9266H132.537L132.31 47.0676C132.314 46.8689 132.272 46.6895 132.189 46.5357C132.103 46.3788 131.985 46.257 131.835 46.1705C131.685 46.084 131.509 46.0392 131.311 46.0392C131.114 46.0392 130.944 46.084 130.791 46.1705C130.638 46.257 130.52 46.382 130.434 46.5389C130.348 46.6959 130.306 46.8785 130.306 47.0804V47.1733C130.306 47.3815 130.354 47.5642 130.45 47.7275C130.545 47.8909 130.68 48.0159 130.849 48.1056C131.021 48.1953 131.216 48.2401 131.439 48.2401C131.621 48.2401 131.787 48.2081 131.937 48.1472C132.087 48.0864 132.218 47.9903 132.33 47.8653L132.639 48.2273C132.499 48.3907 132.326 48.5157 132.116 48.6022C131.908 48.6887 131.675 48.7303 131.417 48.7303Z" fill="#1D1D1B"/>
<path d="M133.705 49.8324V45.5874H134.241V46.4268L134.206 47.1477L134.264 47.8685V49.8324H133.702H133.705ZM135.346 48.7303C135.09 48.7303 134.854 48.6694 134.644 48.5509C134.433 48.4324 134.261 48.2562 134.136 48.0191C134.012 47.782 133.948 47.4905 133.948 47.1413C133.948 46.792 134.008 46.4973 134.133 46.2634C134.257 46.0296 134.423 45.8533 134.634 45.7348C134.845 45.6163 135.084 45.5586 135.349 45.5586C135.652 45.5586 135.92 45.6259 136.153 45.7572C136.386 45.8886 136.571 46.0744 136.709 46.3115C136.846 46.5486 136.913 46.8241 136.913 47.1413C136.913 47.4584 136.846 47.7339 136.709 47.9742C136.571 48.2113 136.386 48.3971 136.153 48.5317C135.92 48.663 135.652 48.7303 135.349 48.7303H135.346ZM135.301 48.2401C135.499 48.2401 135.678 48.1953 135.834 48.1056C135.99 48.0159 136.115 47.8877 136.207 47.7211C136.3 47.5545 136.345 47.3623 136.345 47.1445C136.345 46.9266 136.3 46.728 136.207 46.5678C136.115 46.4044 135.99 46.2794 135.834 46.1897C135.678 46.1 135.499 46.0552 135.301 46.0552C135.103 46.0552 134.931 46.1 134.771 46.1897C134.615 46.2794 134.49 46.4044 134.398 46.5678C134.305 46.7312 134.261 46.9234 134.261 47.1445C134.261 47.3655 134.305 47.5545 134.398 47.7211C134.49 47.8877 134.615 48.0159 134.771 48.1056C134.928 48.1953 135.106 48.2401 135.301 48.2401Z" fill="#1D1D1B"/>
<path d="M138.575 48.73C138.345 48.73 138.144 48.6916 137.972 48.6115C137.8 48.5346 137.665 48.4257 137.573 48.2847C137.48 48.147 137.432 47.99 137.432 47.8138C137.432 47.6376 137.471 47.4934 137.551 47.3556C137.63 47.2179 137.761 47.1089 137.943 47.0288C138.125 46.9487 138.368 46.9071 138.677 46.9071H139.657V47.3108H138.7C138.419 47.3108 138.23 47.3588 138.135 47.4517C138.036 47.5446 137.988 47.66 137.988 47.7913C137.988 47.9451 138.048 48.0669 138.17 48.1566C138.291 48.2495 138.457 48.2943 138.671 48.2943C138.885 48.2943 139.063 48.2463 139.223 48.1534C139.379 48.0605 139.494 47.9227 139.564 47.7433L139.676 48.1309C139.603 48.3135 139.472 48.4609 139.284 48.5667C139.095 48.6756 138.862 48.7268 138.578 48.7268L138.575 48.73ZM139.59 48.6948V48.038L139.561 47.9163V46.7982C139.561 46.5611 139.491 46.3753 139.354 46.2439C139.217 46.1126 139.009 46.0485 138.731 46.0485C138.55 46.0485 138.371 46.0773 138.195 46.1382C138.02 46.1991 137.873 46.2792 137.752 46.3817L137.519 45.9588C137.678 45.8306 137.87 45.7313 138.093 45.664C138.317 45.5968 138.553 45.5615 138.795 45.5615C139.22 45.5615 139.545 45.664 139.775 45.8723C140.005 46.0805 140.12 46.3945 140.12 46.8206V48.6948H139.587H139.59Z" fill="#1D1D1B"/>
</svg>
